<?xml version="1.0" standalone="no"?>
<!DOCTYPE svg PUBLIC "-//W3C//DTD SVG 20010904//EN"
 "http://www.w3.org/TR/2001/REC-SVG-20010904/DTD/svg10.dtd">
<svg version="1.0" xmlns="http://www.w3.org/2000/svg"
 width="300.000000pt" height="250.000000pt" viewBox="0 0 300.000000 250.000000"
 preserveAspectRatio="xMidYMid meet">
<metadata>
Created by potrace 1.10, written by Peter Selinger 2001-2011
</metadata>
<g transform="translate(0.000000,250.000000) scale(0.100000,-0.100000)"
fill="#f60000" stroke="none">
<path d="M1215 2177 c-4 -18 -5 -51 -3 -72 l3 -40 22 37 c33 56 56 66 166 70
l98 3 -1 -260 c-1 -292 -1 -295 -71 -295 -21 0 -41 -5 -45 -11 -4 -7 14 -10
60 -7 72 3 89 -7 29 -18 -56 -10 -129 -52 -160 -92 -105 -138 -43 -319 126
-368 107 -31 100 -24 97 -106 -2 -40 -4 -146 -5 -235 0 -101 -5 -163 -11 -163
-5 0 -10 6 -10 13 0 8 -77 191 -171 408 -210 483 -239 557 -239 609 0 73 23
95 120 115 38 7 56 16 58 28 3 16 -20 17 -322 17 -179 0 -329 0 -333 0 -5 0
-8 -8 -8 -17 0 -12 14 -20 50 -28 99 -22 142 -64 201 -199 l32 -71 -67 -21
c-84 -26 -135 -59 -194 -123 -143 -160 -125 -446 38 -600 82 -78 150 -106 255
-105 95 1 163 21 244 75 26 17 48 30 49 28 2 -2 27 -60 56 -129 183 -429 203
-470 225 -470 19 0 34 31 121 243 126 310 272 648 284 660 9 9 75 -10 109 -32
7 -4 41 -105 76 -224 34 -120 66 -221 71 -226 13 -12 186 -72 197 -69 5 2 -11
18 -36 35 -59 41 -77 79 -135 281 l-49 167 63 7 c129 13 205 85 205 193 0 111
-73 178 -277 256 -35 13 -63 28 -63 34 0 5 21 51 46 102 53 108 110 167 179
185 32 9 45 17 45 30 0 16 -19 18 -250 20 -242 3 -251 2 -248 -16 2 -13 19
-24 55 -36 104 -34 125 -64 106 -155 -6 -28 -91 -248 -188 -490 -98 -242 -183
-452 -189 -467 -6 -16 -14 -28 -18 -28 -4 0 -8 109 -8 243 l0 242 48 17 c138
50 208 156 184 277 -20 94 -92 162 -198 184 -30 6 -54 14 -54 17 0 4 36 5 80
2 55 -3 80 -1 80 7 0 6 -18 11 -43 11 -76 0 -76 -2 -77 299 l-1 263 93 -7
c110 -8 157 -27 177 -72 8 -18 18 -33 23 -33 9 0 10 50 2 103 l-7 37 -343 0
-343 0 -6 -33z m65 2 c0 -6 -4 -8 -9 -4 -6 3 -14 -3 -20 -12 -9 -16 -10 -16
-8 3 1 20 37 33 37 13z m316 -232 c0 -133 3 -256 7 -274 5 -25 1 -36 -18 -57
-26 -28 -65 -35 -65 -11 0 8 -5 15 -10 15 -7 0 -7 6 0 20 6 12 13 128 17 285
l6 265 31 0 31 0 1 -243z m264 239 c0 -11 -19 -15 -25 -6 -3 5 1 10 9 10 9 0
16 -2 16 -4z m30 -17 c0 -11 -4 -17 -10 -14 -5 3 -10 13 -10 21 0 8 5 14 10
14 6 0 10 -9 10 -21z m-705 -390 c-16 -5 -38 -7 -48 -5 -9 2 -14 0 -11 -5 3
-5 -5 -18 -18 -28 -21 -17 -23 -27 -22 -98 1 -73 5 -87 63 -218 74 -169 79
-179 89 -207 5 -13 18 -43 29 -68 12 -25 38 -83 58 -130 21 -47 48 -109 61
-138 13 -29 24 -55 24 -59 0 -3 12 -31 26 -62 32 -68 50 -110 58 -134 4 -12
14 -17 28 -15 21 3 23 9 26 78 2 41 8 77 14 81 6 4 7 12 2 20 -9 15 -8 308 1
317 3 3 5 -1 5 -9 1 -8 2 -117 3 -242 l2 -229 28 -20 c15 -11 27 -15 27 -9 0
6 9 30 19 54 11 23 38 90 62 149 23 59 46 105 51 102 4 -3 7 -2 6 3 -3 12 25
103 33 103 3 0 6 6 6 14 0 15 104 279 113 286 3 3 13 28 22 55 37 112 85 235
89 231 7 -7 -7 96 -15 115 -4 9 -18 22 -32 29 -13 7 -24 20 -24 28 0 8 -6 12
-15 8 -8 -3 -25 -1 -37 4 -15 6 49 9 182 9 145 0 200 -3 187 -10 -9 -6 -27 -7
-40 -4 -15 4 -18 3 -9 -3 10 -7 7 -13 -12 -25 -14 -10 -30 -17 -36 -17 -5 0
-10 -4 -10 -9 0 -9 -63 -118 -79 -137 -5 -7 -7 -15 -4 -18 4 -3 2 -6 -4 -6 -6
0 -16 -20 -23 -45 -10 -36 -10 -48 0 -60 10 -12 9 -22 -5 -51 -9 -20 -35 -86
-57 -148 -23 -61 -46 -127 -53 -146 -7 -19 -17 -34 -22 -34 -15 3 -53 -33 -53
-50 0 -9 -3 -16 -8 -16 -4 0 -13 -18 -19 -40 -7 -21 -26 -69 -43 -105 -16 -36
-30 -70 -30 -75 0 -6 -4 -10 -9 -10 -4 0 -14 -20 -21 -45 -7 -25 -17 -45 -21
-45 -5 0 -9 -9 -9 -20 0 -11 -18 -61 -40 -112 -22 -51 -40 -97 -40 -102 0 -5
-13 -35 -30 -68 -16 -32 -30 -65 -30 -73 0 -8 -9 -30 -20 -50 -11 -20 -20 -42
-20 -50 0 -9 -10 -15 -24 -15 -20 0 -28 10 -46 57 -13 32 -26 63 -30 68 -4 6
-26 55 -50 110 -45 108 -54 129 -94 221 -14 34 -26 66 -26 72 0 6 -10 19 -23
29 -13 10 -22 23 -20 29 5 15 -25 92 -106 272 -24 52 -40 100 -37 108 3 8 2
13 -3 9 -10 -6 -47 69 -81 167 -13 34 -28 66 -34 70 -6 4 -7 8 -3 8 4 0 -4 12
-18 27 -14 15 -25 37 -25 48 0 22 -61 168 -72 173 -5 2 -8 8 -8 13 0 22 -81
91 -111 94 -84 11 -19 15 227 14 182 0 259 -4 239 -10z m427 -235 c69 -35 108
-123 108 -242 0 -97 -59 -162 -148 -162 -115 0 -192 99 -192 247 0 102 34 154
113 173 37 9 81 3 119 -16z m51 9 c-7 -2 -19 -2 -25 0 -7 3 -2 5 12 5 14 0 19
-2 13 -5z m79 -45 c10 -12 18 -28 18 -37 0 -14 2 -14 10 -1 5 8 10 12 10 8 0
-5 -1 -9 -2 -11 -2 -2 5 -12 15 -22 13 -12 18 -29 15 -51 -2 -19 1 -36 7 -39
7 -3 6 -7 -1 -10 -7 -3 -10 -15 -7 -25 7 -26 -25 -93 -39 -84 -7 5 -9 2 -6 -7
4 -10 -2 -15 -18 -17 -21 -2 -23 1 -14 17 15 28 12 140 -4 194 -8 26 -11 47
-8 47 4 0 -1 5 -11 11 -9 6 -15 14 -12 20 4 5 -1 9 -9 9 -9 0 -16 7 -16 16 0
22 47 10 72 -18z m-392 -13 c-15 -18 1 -20 19 -2 10 10 10 7 2 -16 -16 -40
-13 -155 5 -202 8 -22 16 -44 17 -50 1 -5 10 -16 20 -23 16 -12 25 -52 11 -52
-29 0 -109 75 -126 119 -23 60 -3 176 40 224 18 21 29 23 12 2z m-422 -69 c53
-117 272 -627 272 -634 0 -14 -69 -57 -115 -72 -62 -21 -165 -17 -218 9 -93
45 -158 143 -191 288 -46 203 5 350 144 412 62 28 94 27 108 -3z m1235 -42
c55 -19 113 -79 122 -127 13 -70 -31 -159 -96 -192 -46 -24 -207 -13 -225 16
-3 5 20 79 52 164 64 173 59 169 147 139z m-1504 -96 c-26 -63 -30 -82 -25
-133 15 -178 67 -312 155 -404 18 -20 108 -61 132 -61 10 0 19 -4 19 -8 0 -4
-22 -9 -49 -10 -52 -2 -110 17 -140 47 -10 10 -32 26 -49 36 -17 10 -36 29
-43 42 -7 13 -16 23 -21 23 -5 0 -6 5 -3 10 3 6 2 10 -3 10 -16 0 -51 85 -63
154 -17 103 -1 221 39 284 11 18 17 20 29 11 11 -10 12 -8 4 14 -8 21 -7 25 4
20 9 -3 15 1 15 10 0 8 6 18 13 20 6 3 13 6 14 6 1 1 -12 -32 -28 -71z m1636
52 c-3 -5 -10 -10 -16 -10 -5 0 -9 5 -9 10 0 6 7 10 16 10 8 0 12 -4 9 -10z
m33 -22 c-2 -7 3 -12 10 -10 6 1 12 -7 12 -19 0 -11 4 -18 9 -15 19 12 31
-107 16 -155 -8 -25 -41 -59 -57 -59 -5 0 -7 -4 -3 -9 7 -12 -45 -28 -118 -37
-37 -4 -61 -12 -64 -21 -5 -13 9 -80 38 -180 22 -77 27 -107 22 -116 -3 -6 -1
-7 5 -3 8 5 12 0 12 -12 0 -11 8 -37 17 -58 9 -22 16 -42 15 -46 -1 -5 3 -8
10 -8 6 0 8 -3 5 -7 -14 -13 -86 32 -92 57 -7 30 -34 124 -45 160 -5 14 -14
53 -21 88 -7 34 -17 62 -21 62 -5 0 -5 12 -2 26 5 21 4 25 -6 19 -10 -6 -12
-1 -8 18 3 15 2 24 -3 22 -4 -3 -10 -1 -14 5 -4 6 21 10 70 10 67 0 81 3 111
27 19 14 44 47 56 72 25 53 36 145 19 155 -19 12 -13 46 9 46 11 0 19 -6 18
-12z m-843 -186 c-3 -3 -11 0 -18 7 -9 10 -8 11 6 5 10 -3 15 -9 12 -12z
m-487 -459 c-10 -2 -26 -2 -35 0 -10 3 -2 5 17 5 19 0 27 -2 18 -5z"/>
<path d="M1536 1394 c-16 -41 -3 -94 23 -94 26 0 41 21 41 55 0 17 -5 36 -12
43 -17 17 -45 15 -52 -4z m34 -39 c0 -8 -4 -15 -10 -15 -5 0 -10 7 -10 15 0 8
5 15 10 15 6 0 10 -7 10 -15z"/>
</g>
</svg>
